<svg width="2856" height="2729" viewBox="0 0 2856 2729" fill="none" xmlns="http://www.w3.org/2000/svg">
<path d="M2806.72 1912.7C2754.17 1797.45 2662.73 1696.72 2610.49 1569.39C2585.51 1508.49 2574.42 1443.05 2583.81 1377.37C2594.24 1304.41 2630.47 1240.89 2668.84 1179.72C2818.18 941.639 2902.75 556.488 2615.82 386.192C2519.66 329.123 2400.62 292.815 2290.22 276.824C2217.01 266.221 2140.87 270.195 2069.9 246.959C1858.64 177.765 1504.31 -157.999 1291.65 90.0131C1138.56 268.545 1179.02 623.952 900.097 672.75C818.83 686.969 735.568 687.693 653.878 699.523C562.223 712.795 471.35 733.428 384.889 767.583C215.238 834.603 47.2232 973.972 6.99855 1163.63C-29.101 1333.83 82.8134 1483.82 151.72 1628.2C182.754 1693.22 207.827 1761.45 214.55 1833.91C222.513 1919.73 202.469 2005.72 209.657 2091.73C217.505 2185.6 194.333 2217.66 194.333 2294.37C194.333 2359.84 231.516 2425.01 231.516 2425.01H2757.04C2917.15 2236.12 2841.4 1988.73 2806.72 1912.7Z" fill="#E8FAF5"/>
<path d="M1348.53 2284.25C1469.53 2146.78 1622.5 2027.97 1642.55 1834.72C1648.45 1777.83 1666.28 1684.03 1626.56 1634.55C1581.2 1578.05 1490.14 1625.21 1441.01 1650.91C1410.9 1666.66 1389.56 1692.66 1374.13 1720.45C1431.2 1321.01 1438.49 1056.24 1296.36 914.219C1127.38 745.365 1027.29 1004.92 973.594 1203.96C959.554 838.964 410.134 441.675 255.333 565.412C108.854 682.492 417.035 928.115 566.477 1427.73C87.856 962.271 -261.92 1243.62 258.26 1626.02C350.776 1720.38 465.173 1778.7 662.371 2069.98C424.309 1884.17 87.856 2079.46 454.706 2255.48C507.808 2280.96 735.331 2402.22 745.461 2440.78C769.321 2531.6 843.156 2572.93 932.444 2578.51C994.133 2582.35 1057.8 2583.07 1119.11 2573.87C1211.38 2560.01 1227.24 2453.98 1269.18 2387.78C1292.27 2351.33 1319.48 2317.25 1348.53 2284.25Z" fill="#B3FCE4"/>
<path d="M381.036 661.319C400.098 673.163 415.68 686.356 431.606 700.202C446.729 714.565 462.332 728.518 475.963 744.193L497.097 767.114C504.15 774.747 510.255 783.134 516.876 791.104L536.375 815.323L546.125 827.44L555.078 840.11L590.797 890.873C596.988 899.187 602.125 908.155 607.591 916.922L623.833 943.315L640.068 969.715C645.391 978.561 651.166 987.169 655.808 996.388L685.106 1050.92L699.756 1078.2C704.691 1087.27 709.591 1096.35 713.759 1105.78L739.973 1161.81L766.187 1217.85L789.553 1275.08L812.804 1332.35L824.433 1360.99C828.4 1370.5 831.399 1380.37 834.928 1390.04L875.784 1506.65L886 1535.8L894.881 1565.37L912.637 1624.51L930.386 1683.66L939.26 1713.24L943.701 1728.03L947.553 1742.97L977.999 1862.61L993.223 1922.44C995.676 1932.42 998.474 1942.34 1000.65 1952.39L1007.08 1982.56L1032.77 2103.27L1045.62 2163.63L1052.03 2193.81L1057.34 2224.2L1099.81 2467.29C1101.21 2475.3 1095.85 2482.93 1087.83 2484.33C1079.82 2485.73 1072.19 2480.37 1070.79 2472.35L1070.77 2472.29L1070.69 2471.79L1029.46 2229.4L1024.31 2199.1L1018.07 2169.02L1005.54 2108.87L980.496 1988.54L974.233 1958.46C972.11 1948.44 969.369 1938.58 966.973 1928.62L952.087 1869.03L922.322 1749.82L918.556 1734.94L914.208 1720.22L905.513 1690.77L888.124 1631.88L870.741 1572.98L862.039 1543.53L852.024 1514.53L811.95 1398.5C808.485 1388.88 805.551 1379.05 801.655 1369.59L790.241 1341.13L767.421 1284.19L744.493 1227.29L718.76 1171.66L693.034 1116.01C688.945 1106.64 684.138 1097.63 679.288 1088.65L664.919 1061.61L636.18 1007.52C631.624 998.361 625.971 989.867 620.756 981.107L604.844 954.98L588.932 928.852C583.58 920.171 578.544 911.283 572.489 903.09L537.559 852.973L528.807 840.454L519.301 828.545L500.29 804.713C493.84 796.872 487.872 788.579 481.021 781.111L460.51 758.67C447.245 743.253 432.237 729.766 417.674 715.777C402.767 702.591 386.783 689.291 371.022 679.34L370.11 678.766C365.304 675.732 363.869 669.383 366.904 664.583C369.931 659.784 376.244 658.342 381.036 661.319Z" fill="#86C2C2"/>
<path d="M1200.1 1250.9C1200.1 1250.9 1023.6 1499.61 977.008 1910.5" stroke="#86C2C2" stroke-width="20.5987" stroke-miterlimit="10" stroke-linecap="round" stroke-linejoin="round"/>
<path d="M179.516 1324.43C179.516 1324.43 637.267 1476.2 1016.8 2089.12" stroke="#86C2C2" stroke-width="20.5987" stroke-miterlimit="10" stroke-linecap="round" stroke-linejoin="round"/>
<path d="M465.805 2144.54C465.805 2144.54 749.845 2148.68 1061.9 2388.35" stroke="#86C2C2" stroke-width="20.5987" stroke-miterlimit="10" stroke-linecap="round" stroke-linejoin="round"/>
<path d="M1489.02 1784.09C1489.02 1784.09 1249.49 1972.93 1085.29 2432.94" stroke="#86C2C2" stroke-width="20.5987" stroke-miterlimit="10" stroke-linecap="round" stroke-linejoin="round"/>
<path d="M263.534 2468.86C338.008 2568.25 433.02 2631.8 559.978 2638.79C689.892 2645.95 818.637 2621.52 947.798 2642.21C1055.95 2659.53 1138.86 2727.79 1249.16 2728.78C1355.85 2729.72 1467.43 2651.58 1552.62 2592.51C1627.57 2540.54 1857.79 2491.53 2072.29 2553.68C2146.15 2575.09 2321.32 2617.62 2428.09 2617.62C2636.16 2617.62 2757.05 2425.03 2757.05 2425.03H231.531C242.106 2439.7 252.695 2454.39 263.534 2468.86Z" fill="#86C2C2"/>
<path d="M441.002 2232.82C564.278 2194.87 633.449 2064.17 595.5 1940.89C557.551 1817.62 426.853 1748.45 303.577 1786.4C180.302 1824.35 111.131 1955.04 149.08 2078.32C187.028 2201.6 317.727 2270.77 441.002 2232.82Z" fill="#FFAA00"/>
<path d="M435.656 2227.5C555.887 2192.56 625.026 2066.76 590.082 1946.53C555.139 1826.3 429.344 1757.16 309.113 1792.1C188.881 1827.05 119.742 1952.84 154.686 2073.07C189.629 2193.3 315.424 2262.44 435.656 2227.5Z" fill="#FFCA39"/>
<path d="M372.321 2187.71C470.632 2187.71 550.329 2108.02 550.329 2009.7C550.329 1911.39 470.632 1831.7 372.321 1831.7C274.01 1831.7 194.312 1911.39 194.312 2009.7C194.312 2108.02 274.01 2187.71 372.321 2187.71Z" fill="#FFAA00"/>
<path d="M454.471 1954.14L446.937 1981.94H306.116L313.757 1954.14H454.471ZM383.689 2118.41L309.406 2029.06L309.299 2005.5H346.017C354.79 2005.5 362.112 2004.05 367.984 2001.15C373.926 1998.18 378.419 1994.04 381.461 1988.73C384.574 1983.36 386.13 1977.06 386.13 1969.84C386.13 1959.02 382.947 1950.32 376.579 1943.74C370.212 1937.16 360.025 1933.87 346.017 1933.87H306.116L314.393 1901.08H346.017C363.845 1901.08 378.596 1903.84 390.269 1909.35C402.013 1914.8 410.785 1922.51 416.587 1932.49C422.459 1942.46 425.395 1954.14 425.395 1967.51C425.395 1979.32 423.237 1989.86 418.921 1999.13C414.606 2008.4 407.814 2016 398.546 2021.95C389.278 2027.89 377.145 2031.85 362.147 2033.83L360.874 2034.26L427.941 2116.5V2118.41H383.689ZM454.684 1901.08L446.937 1929.3L332.752 1928.88L340.499 1901.08H454.684Z" fill="#FEE22C"/>
<path d="M447.229 1952.72L439.695 1980.52H298.874L306.514 1952.72H447.229ZM376.447 2116.99L302.163 2027.64L302.057 2004.08H338.775C347.547 2004.08 354.87 2002.63 360.742 1999.73C366.684 1996.76 371.177 1992.62 374.219 1987.31C377.332 1981.94 378.888 1975.64 378.888 1968.42C378.888 1957.6 375.704 1948.9 369.337 1942.32C362.97 1935.74 352.783 1932.45 338.775 1932.45H298.874L307.151 1899.66H338.775C356.603 1899.66 371.354 1902.42 383.027 1907.93C394.771 1913.38 403.543 1921.09 409.344 1931.07C415.216 1941.04 418.152 1952.72 418.152 1966.09C418.152 1977.9 415.995 1988.44 411.679 1997.71C407.364 2006.98 400.572 2014.58 391.304 2020.53C382.036 2026.47 369.903 2030.43 354.905 2032.41L353.632 2032.84L420.699 2115.08V2116.99H376.447ZM447.441 1899.66L439.695 1927.88L325.51 1927.46L333.257 1899.66H447.441Z" fill="#FEE22C"/>
<path d="M688.687 1136.94C807.796 1087.43 864.22 950.74 814.714 831.63C765.208 712.521 628.518 656.097 509.409 705.603C390.299 755.109 333.875 891.799 383.381 1010.91C432.888 1130.02 569.577 1186.44 688.687 1136.94Z" fill="#FFAA00"/>
<path d="M802.201 1022.2C857.941 910.085 812.237 774.009 700.118 718.269C588 662.529 451.924 708.232 396.184 820.351C340.444 932.469 386.148 1068.55 498.266 1124.29C610.385 1180.03 746.461 1134.32 802.201 1022.2Z" fill="#FFCA39"/>
<path d="M775.285 946.398C789.127 849.074 721.447 758.955 624.119 745.113C526.791 731.271 436.67 798.947 422.828 896.271C408.987 993.595 476.666 1083.71 573.994 1097.56C671.322 1111.4 761.443 1043.72 775.285 946.398Z" fill="#FFAA00"/>
<path d="M680.737 868.502L673.203 896.305H532.382L540.022 868.502H680.737ZM609.955 1032.78L535.671 943.423L535.565 919.864H572.283C581.055 919.864 588.377 918.414 594.249 915.513C600.192 912.542 604.684 908.403 607.727 903.097C610.839 897.72 612.396 891.424 612.396 884.208C612.396 873.383 609.212 864.682 602.845 858.102C596.478 851.523 586.29 848.233 572.283 848.233H532.382L540.659 815.442H572.283C590.111 815.442 604.861 818.201 616.535 823.719C628.278 829.167 637.051 836.878 642.852 846.853C648.724 856.829 651.66 868.502 651.66 881.873C651.66 893.688 649.502 904.229 645.187 913.497C640.871 922.765 634.08 930.37 624.812 936.312C615.544 942.255 603.411 946.217 588.413 948.198L587.139 948.622L654.207 1030.87V1032.78H609.955ZM680.949 815.442L673.203 843.67L559.018 843.245L566.764 815.442H680.949Z" fill="#FEE22C"/>
<path d="M674.175 865.082L666.64 892.885H525.819L533.46 865.082H674.175ZM603.393 1029.36L529.109 940.003L529.003 916.444H565.72C574.493 916.444 581.815 914.994 587.687 912.093C593.63 909.122 598.122 904.983 601.164 899.677C604.277 894.3 605.833 888.004 605.833 880.788C605.833 869.963 602.65 861.262 596.283 854.682C589.915 848.103 579.728 844.813 565.72 844.813H525.819L534.096 812.022H565.72C583.548 812.022 598.299 814.781 609.972 820.299C621.716 825.747 630.489 833.458 636.29 843.434C642.162 853.409 645.098 865.082 645.098 878.453C645.098 890.268 642.94 900.809 638.624 910.077C634.309 919.345 627.517 926.95 618.249 932.893C608.982 938.835 596.849 942.797 581.85 944.778L580.577 945.202L647.645 1027.45V1029.36H603.393ZM674.387 812.022L666.64 840.25L552.455 839.825L560.202 812.022H674.387Z" fill="#FEE22C"/>
<path d="M1796.64 513.93C1820.18 418.429 1761.84 321.929 1666.34 298.391C1570.84 274.853 1474.34 333.19 1450.8 428.69C1427.26 524.191 1485.6 620.691 1581.1 644.229C1676.6 667.767 1773.1 609.43 1796.64 513.93Z" fill="#FFAA00"/>
<path d="M1745.97 593.452C1813.48 525.942 1813.48 416.487 1745.97 348.977C1678.46 281.467 1569.01 281.467 1501.5 348.977C1433.99 416.487 1433.99 525.943 1501.5 593.453C1569.01 660.963 1678.46 660.962 1745.97 593.452Z" fill="#FFCA39"/>
<path d="M1694.25 587.221C1758.31 548.291 1778.69 464.796 1739.76 400.729C1700.83 336.662 1617.34 316.285 1553.27 355.216C1489.2 394.146 1468.82 477.641 1507.76 541.708C1546.69 605.774 1630.18 626.151 1694.25 587.221Z" fill="#FFAA00"/>
<path d="M1673.51 440.073L1668.12 459.962H1567.39L1572.85 440.073H1673.51ZM1622.88 557.584L1569.74 493.666L1569.66 476.814H1595.93C1602.2 476.814 1607.44 475.777 1611.64 473.702C1615.89 471.576 1619.11 468.616 1621.28 464.82C1623.51 460.974 1624.62 456.47 1624.62 451.308C1624.62 443.565 1622.35 437.34 1617.79 432.634C1613.24 427.927 1605.95 425.574 1595.93 425.574H1567.39L1573.31 402.117H1595.93C1608.68 402.117 1619.23 404.091 1627.58 408.038C1635.98 411.935 1642.26 417.451 1646.41 424.587C1650.61 431.723 1652.71 440.073 1652.71 449.638C1652.71 458.089 1651.17 465.63 1648.08 472.259C1644.99 478.889 1640.13 484.329 1633.5 488.58C1626.87 492.831 1618.2 495.665 1607.47 497.083L1606.56 497.386L1654.53 556.218V557.584H1622.88ZM1673.66 402.117L1668.12 422.31L1586.44 422.006L1591.98 402.117H1673.66Z" fill="#FEE22C"/>
<path d="M1671.38 436.634L1666 456.522H1565.26L1570.73 436.634H1671.38ZM1620.75 554.145L1567.61 490.227L1567.54 473.375H1593.8C1600.08 473.375 1605.32 472.337 1609.52 470.262C1613.77 468.137 1616.98 465.176 1619.16 461.381C1621.38 457.534 1622.5 453.03 1622.5 447.868C1622.5 440.125 1620.22 433.901 1615.67 429.194C1611.11 424.488 1603.82 422.134 1593.8 422.134H1565.26L1571.18 398.678H1593.8C1606.56 398.678 1617.11 400.651 1625.46 404.599C1633.86 408.496 1640.13 414.012 1644.28 421.148C1648.49 428.283 1650.59 436.634 1650.59 446.198C1650.59 454.65 1649.04 462.19 1645.95 468.82C1642.87 475.45 1638.01 480.89 1631.38 485.141C1624.75 489.392 1616.07 492.226 1605.34 493.643L1604.43 493.947L1652.41 552.778V554.145H1620.75ZM1671.54 398.678L1666 418.87L1584.31 418.567L1589.86 398.678H1671.54Z" fill="#FEE22C"/>
<path d="M2514.83 495.566C2514.83 495.566 2487.44 646.191 2624.77 697.887C2762.09 749.583 2723.18 855.658 2643.08 931.1C2528.7 1038.82 2427.34 920.367 2269.71 931.1C2112.08 941.832 2155.37 759.555 2247.8 655.568C2340.22 551.581 2247.8 427.162 2247.8 427.162L2514.83 495.566Z" fill="#2E3344"/>
<path d="M2366.27 1459.03C2378.75 1555.35 2302.18 1881.16 2275.43 1988.77C2304.1 2083.01 2305.33 2141.98 2304.1 2206.38C2304.1 2206.38 2284.01 2353.23 2284.05 2378.43L2195.83 2388.31C2193.73 2363.32 2159.02 2041.2 2134.23 1922.79C2111.68 1815.01 2154.6 1551.86 2192.64 1364.22C2280.39 1348.32 2357.5 1391.41 2366.27 1459.03Z" fill="#4E68C4"/>
<path d="M2231.34 2376.7L2173.43 2395.63C2142.35 2402.62 2118.77 2409.65 2101.61 2415.33C2090.52 2418.99 2083.43 2428.31 2089.15 2436.79C2091.26 2439.92 2094.44 2441.98 2098.55 2442.6L2272.91 2442.35C2280.21 2442.36 2286.14 2437.5 2286.15 2431.48L2286.19 2422.08L2286.24 2422.09V2376.72H2231.34V2376.7Z" fill="#141C23"/>
<path d="M2502.97 1327.04C2527.56 1360.72 2516.38 1448.79 2489.81 1524.32C2457.57 1615.94 2530.61 1795.54 2466.21 1967.19C2526.11 2035.86 2527.34 2120.23 2526.11 2184.62C2526.11 2184.62 2523.45 2357.75 2523.49 2382.96L2443.44 2393.41C2441.34 2368.42 2369.89 2061.84 2340.27 1944.54C2290.52 1747.63 2247.79 1535.45 2227.02 1360.94C2314.77 1345.06 2414.81 1340.59 2502.97 1327.04Z" fill="#6384FA"/>
<path d="M2468.44 2376.7L2413.32 2395.63C2382.23 2402.62 2358.65 2409.65 2341.49 2415.33C2330.4 2418.99 2323.31 2428.31 2329.04 2436.79C2331.15 2439.92 2334.32 2441.98 2338.44 2442.6L2512.79 2442.35C2520.1 2442.36 2526.02 2437.5 2526.04 2431.48L2526.07 2422.08L2526.12 2422.09V2376.72H2468.44V2376.7Z" fill="#141C23"/>
<path d="M2225.54 917.9L1988.11 1079.34L1984.88 1081.54C1965.12 1094.98 1938.44 1090.56 1923.83 1072.13L1745.06 845.55L1745.01 845.479C1730.66 827.3 1733.77 800.942 1751.95 786.602C1769.79 772.526 1795.56 775.31 1810.07 792.606L1995.43 1014.11L1931.15 1006.9L2144.04 814.243C2171.1 789.751 2212.89 791.839 2237.38 818.899C2261.87 845.959 2259.78 887.755 2232.72 912.24C2230.53 914.234 2227.92 916.257 2225.54 917.9Z" fill="#E3A5A2"/>
<path d="M2153.28 787.417L2007.48 928.185L2083.06 1026.34L2283.96 859.602L2288.43 745.428L2252.12 734.932C2212.44 734.602 2171.63 770.572 2153.28 787.417Z" fill="#5D52D9"/>
<path d="M2035.39 901.248L2007.48 928.194L2083.06 1026.35L2115.17 999.697C2089.71 966.001 2062.94 933.323 2035.39 901.248Z" fill="white"/>
<path d="M1727.32 768.322C1727.75 769.757 1727.8 769.706 1727.88 769.871C1727.99 770.094 1728.08 770.216 1728.07 770.166C1728.07 770.166 1728.26 770.273 1728.18 770.072C1728.16 769.821 1728.13 769.513 1727.93 769.032C1727.7 768.2 1727.13 767.052 1726.55 765.94C1725.37 763.666 1723.7 761.155 1721.89 758.68C1718.21 753.694 1713.79 748.658 1709.02 743.779C1699.44 733.994 1688.48 724.783 1677.1 715.959L1676.95 715.844C1671.29 711.439 1670.26 703.275 1674.66 697.608C1678.46 692.708 1685.08 691.28 1690.47 693.827C1704.24 700.319 1717.93 707.357 1731.33 716.009C1738.03 720.356 1744.66 725.106 1751.2 730.723C1754.47 733.564 1757.7 736.57 1760.93 740.207C1762.55 742.043 1764.13 743.894 1765.76 746.233C1766.55 747.302 1767.39 748.622 1768.21 749.999C1768.6 750.595 1769.09 751.606 1769.51 752.403C1769.7 752.768 1769.96 753.321 1770.22 753.974C1770.46 754.576 1770.68 754.949 1771.24 756.829C1774.41 768.953 1767.15 781.357 1755.03 784.528C1742.9 787.706 1730.5 780.446 1727.32 768.322Z" fill="#E3A5A2"/>
<path d="M1758.99 764.259C1759.4 766.196 1759.41 765.909 1759.53 766.282C1759.68 766.648 1759.71 766.662 1759.73 766.691C1759.82 766.792 1759.94 766.899 1759.9 766.727C1759.96 766.584 1759.88 766.218 1759.74 765.766C1759.48 764.898 1759.07 763.779 1758.45 762.58C1757.35 760.206 1755.69 757.551 1753.96 754.911C1750.39 749.596 1746.02 744.229 1741.45 738.935C1732.11 728.389 1721.56 718.245 1710.61 708.424L1710.5 708.323C1705.15 703.531 1704.71 695.31 1709.5 689.972C1713.66 685.345 1720.38 684.391 1725.58 687.34C1739 694.937 1752.29 703.029 1765.29 712.47C1771.76 717.291 1778.19 722.341 1784.49 728.303C1787.64 731.352 1790.77 734.473 1793.87 738.304C1795.42 740.147 1796.96 742.242 1798.52 744.645C1799.28 745.829 1800.07 747.12 1800.87 748.706C1801.24 749.373 1801.69 750.356 1802.1 751.339C1802.3 751.805 1802.51 752.264 1802.77 753.075C1803.02 753.893 1803.19 754.058 1803.68 756.454C1805.84 768.8 1797.58 780.558 1785.23 782.711C1772.91 784.863 1761.15 776.606 1758.99 764.259Z" fill="#E3A5A2"/>
<path d="M1724.29 803.305C1724.6 803.671 1724.07 802.58 1723.81 802.042C1723.53 801.404 1723.07 800.629 1722.71 799.919C1721.86 798.441 1720.99 796.92 1719.97 795.385C1718.02 792.314 1715.76 789.251 1713.41 786.209C1708.65 780.14 1703.25 774.293 1697.5 768.662C1691.75 763.023 1685.51 757.721 1679.05 752.592C1672.58 747.477 1665.75 742.706 1658.77 738.05L1658.49 737.857C1652.52 733.882 1650.92 725.833 1654.89 719.871C1658.41 714.598 1665.12 712.74 1670.74 715.122C1679.09 718.659 1687.42 722.411 1695.58 726.665C1703.73 730.948 1711.81 735.539 1719.64 740.748C1727.47 745.956 1735.15 751.602 1742.5 758.008C1746.17 761.244 1749.79 764.573 1753.3 768.274C1755.07 770.082 1756.8 772.041 1758.54 774.049C1759.41 775.126 1760.26 776.087 1761.15 777.278C1762.09 778.54 1762.74 779.279 1764.14 781.532C1770.15 792.53 1766.1 806.318 1755.11 812.33C1744.08 818.349 1730.29 814.303 1724.29 803.305Z" fill="#E3A5A2"/>
<path d="M1723.67 833.438C1718.5 827.067 1712.23 820.087 1706.18 813.559C1700.04 806.951 1693.76 800.409 1687.31 794.017C1674.43 781.211 1661 768.872 1647.09 757.035L1647.02 756.97C1641.56 752.329 1640.9 744.136 1645.55 738.676C1649.7 733.805 1656.66 732.758 1661.99 735.886C1678.36 745.477 1694.41 755.715 1710.07 766.605C1717.91 772.035 1725.63 777.667 1733.3 783.449C1741.02 789.332 1748.33 794.999 1756.22 801.808C1765.76 810.015 1766.84 824.406 1758.63 833.94C1750.42 843.474 1736.04 844.557 1726.49 836.343C1725.49 835.482 1724.49 834.428 1723.67 833.438Z" fill="#E3A5A2"/>
<path d="M1752.7 860.22C1777.04 872.99 1826.13 849.201 1826.13 849.201C1836.26 800.884 1824.52 774.068 1813.5 758.543L1753.41 736.863C1753.41 736.863 1732.37 757.087 1732.32 757.13C1723.16 765.932 1714.22 776.313 1711.25 789.004C1707.21 806.272 1729.73 848.168 1752.7 860.22Z" fill="#DB9491"/>
<path d="M1789.14 707.543C1793.94 710.369 1797.12 712.615 1800.7 715.585C1804.19 718.419 1807.4 721.604 1810.49 724.997C1816.57 731.848 1821.72 740.091 1825.12 749.317C1828.5 758.485 1830.35 768.68 1829.84 778.522C1829.96 783.58 1828.97 788.243 1828.27 793.114C1827.38 797.856 1825.93 802.297 1824.65 806.938C1821.31 819.113 1808.72 826.272 1796.55 822.929C1784.38 819.586 1777.22 807.003 1780.56 794.829C1780.92 793.53 1781.38 792.282 1781.94 791.105L1783.01 788.867C1784.16 786.471 1785.72 784.046 1786.76 781.607C1787.58 779.197 1788.92 776.7 1789.3 774.275C1790.82 769.325 1790.97 764.39 1790.39 759.26C1789.77 754.152 1788.06 748.865 1785.22 743.786C1783.75 741.282 1782.17 738.757 1780.28 736.411C1778.6 734.115 1776.02 731.576 1774.69 730.169L1772.73 728.089C1767.7 722.752 1767.95 714.351 1773.28 709.322C1777.7 705.19 1784.18 704.637 1789.14 707.543Z" fill="#E3A5A2"/>
<path d="M2470.71 834.797C2453.94 762.577 2412.84 734.498 2344.94 734.369C2316.99 734.318 2289.04 734.146 2261.09 734.032C2258.58 734.024 2256.05 734.168 2253.59 734.627C2217.54 741.299 2194.58 769.579 2194.83 800.75C2194.85 803.54 2194.73 806.288 2194.26 809.036C2192.28 820.45 2184.97 853.213 2159.16 918.174C2151.36 937.787 2138.49 990.272 2180.05 1027.23C2189.19 1035.35 2194.91 1046.6 2195.18 1058.83C2197.23 1149.92 2195.13 1254.2 2180.41 1333.26C2176.14 1356.18 2191.5 1378.1 2214.37 1382.62C2312.12 1401.95 2408.62 1406.82 2493.72 1391.59C2516.56 1387.5 2537.39 1364.76 2528.57 1343.3C2453.94 1161.87 2482.47 885.446 2470.71 834.797Z" fill="#6C5EFF"/>
<path d="M2368.77 747.216C2368.77 747.216 2304.04 807.592 2288.46 797.908C2279.65 792.427 2276.21 746.556 2276.21 746.556C2276.21 746.556 2289.65 694.494 2273.09 640.058C2284.11 615.731 2350.57 610.738 2369.51 643.459C2360.64 690.843 2368.77 747.216 2368.77 747.216Z" fill="#DB9491"/>
<path d="M2426.28 648.774C2426.28 648.774 2420.07 656.106 2428.06 670.691C2428.06 670.691 2410.11 661.802 2414.06 647.117L2426.28 648.774Z" fill="#2E3344"/>
<path d="M2459.2 603.065C2459.2 603.065 2468.54 635.535 2406.54 657.121L2451.74 569.52L2459.2 603.065Z" fill="#2E3344"/>
<path d="M2437.37 635.6C2437.37 635.6 2435.86 652.1 2461.07 653.714C2461.07 653.714 2442.13 660.852 2429.41 647.071L2437.37 635.6Z" fill="#2E3344"/>
<path d="M2220.17 452.096C2220.17 452.096 2166.35 548.823 2217.04 609.357L2235.89 605.756L2220.17 452.096Z" fill="#2E3344"/>
<path d="M2191.88 557.737C2196.75 577.645 2209.69 591.584 2220.79 588.872C2231.88 586.16 2236.94 567.824 2232.07 547.916C2227.21 528.008 2214.27 514.069 2203.17 516.781C2192.07 519.492 2187.02 537.836 2191.88 557.737Z" fill="#DB9491"/>
<path d="M2456.14 438.392C2430.9 401.669 2391.68 377.306 2346.73 375.426C2345.23 375.361 2343.66 375.397 2342.12 375.397C2340.58 375.268 2339.01 375.103 2337.53 375.039C2292.58 373.159 2275.52 369.83 2246.12 403.326C2208.22 446.513 2218.45 533.864 2217.29 561.591C2214.01 640.175 2219.68 696.814 2292.72 699.497C2369.19 702.309 2448.53 653.318 2456.5 571.893C2459.2 544.288 2471.88 461.284 2456.14 438.392Z" fill="#FFB9B6"/>
<path d="M2286.78 336.74C2301.35 331.847 2317.98 330.255 2330.22 329.48C2373.2 326.775 2420.4 327.815 2456.09 353.685C2526.25 404.556 2537.73 506.312 2477.06 580.225C2460.65 594.078 2262.99 552.943 2211.99 446.99C2196.93 415.704 2252.9 409.9 2254.36 372.201C2255.11 352.989 2269.5 342.544 2286.78 336.74Z" fill="#2E3344"/>
<path d="M2287.69 391.459C2287.69 391.459 2291.01 502.965 2197.9 516.373C2197.9 516.373 2156.05 391.165 2283.43 337.941L2287.69 391.459Z" fill="#2E3344"/>
<path d="M2477.01 580.233C2469.33 603.153 2452.75 618.255 2439.97 613.972C2427.2 609.689 2423.06 587.643 2430.75 564.722C2438.43 541.801 2455.01 526.7 2467.79 530.976C2480.56 535.266 2484.69 557.312 2477.01 580.233Z" fill="#FFB9B6"/>
<path d="M1832.43 1311.05H832.969C794.093 1311.05 762.57 1279.53 762.57 1240.65V630.607C762.57 591.732 794.086 560.209 832.969 560.209H1832.43C1871.3 560.209 1902.83 591.724 1902.83 630.607V1240.65C1902.83 1279.53 1871.31 1311.05 1832.43 1311.05Z" fill="#006BB3"/>
<path d="M1818.71 1324.78H819.242C780.366 1324.78 748.844 1293.26 748.844 1254.38V644.338C748.844 605.462 780.359 573.939 819.242 573.939H1818.71C1857.59 573.939 1889.11 605.455 1889.11 644.338V1254.38C1889.11 1293.26 1857.59 1324.78 1818.71 1324.78Z" fill="#0089E5"/>
<path d="M1023.23 1008.3H836.782C821.279 1008.3 808.703 995.735 808.703 980.225V867.528C808.703 852.018 821.272 839.449 836.782 839.449H1023.23C1038.74 839.449 1051.31 852.018 1051.31 867.528V980.225C1051.31 995.735 1038.74 1008.3 1023.23 1008.3Z" fill="#FFE05E"/>
<path d="M808.703 893.92H1051.31" stroke="#FCFEFF" stroke-width="5.89631" stroke-miterlimit="10"/>
<path d="M808.703 953.826H1051.31" stroke="#FCFEFF" stroke-width="5.89631" stroke-miterlimit="10"/>
<path d="M882.344 953.83V893.92" stroke="#FCFEFF" stroke-width="5.89631" stroke-miterlimit="10"/>
<path d="M977.625 953.83V893.92" stroke="#FCFEFF" stroke-width="5.89631" stroke-miterlimit="10"/>
<path d="M1017.85 1132.45H822.205C814.751 1132.45 808.703 1126.41 808.703 1118.95V1084.67C808.703 1077.22 814.751 1071.17 822.205 1071.17H1017.85C1025.31 1071.17 1031.36 1077.22 1031.36 1084.67V1118.95C1031.35 1126.41 1025.31 1132.45 1017.85 1132.45Z" fill="#E0FEFD"/>
<path d="M1283.79 1132.45H1088.14C1080.69 1132.45 1074.64 1126.41 1074.64 1118.95V1084.67C1074.64 1077.22 1080.68 1071.17 1088.14 1071.17H1283.79C1291.25 1071.17 1297.29 1077.22 1297.29 1084.67V1118.95C1297.29 1126.41 1291.25 1132.45 1283.79 1132.45Z" fill="#E0FEFD"/>
<path d="M1549.74 1132.45H1354.09C1346.63 1132.45 1340.59 1126.41 1340.59 1118.95V1084.67C1340.59 1077.22 1346.63 1071.17 1354.09 1071.17H1549.74C1557.19 1071.17 1563.24 1077.22 1563.24 1084.67V1118.95C1563.24 1126.41 1557.2 1132.45 1549.74 1132.45Z" fill="#E0FEFD"/>
<path d="M1815.74 1132.45H1620.09C1612.63 1132.45 1606.59 1126.41 1606.59 1118.95V1084.67C1606.59 1077.22 1612.63 1071.17 1620.09 1071.17H1815.74C1823.19 1071.17 1829.24 1077.22 1829.24 1084.67V1118.95C1829.24 1126.41 1823.19 1132.45 1815.74 1132.45Z" fill="#E0FEFD"/>
<path d="M1814.92 1273.71H1203.78C1195.88 1273.71 1189.48 1267.31 1189.48 1259.41V1226.21C1189.48 1218.31 1195.88 1211.91 1203.78 1211.91H1814.92C1822.82 1211.91 1829.22 1218.31 1829.22 1226.21V1259.41C1829.22 1267.3 1822.81 1273.71 1814.92 1273.71Z" fill="#0071BD"/>
<path d="M1674.13 1187.88H1617C1613.1 1187.88 1609.95 1184.72 1609.95 1180.83V1162.07C1609.95 1158.17 1613.1 1155.01 1617 1155.01H1674.13C1678.03 1155.01 1681.18 1158.17 1681.18 1162.07V1180.83C1681.18 1184.72 1678.03 1187.88 1674.13 1187.88Z" fill="#0071BD"/>
<path d="M1819.46 1187.88H1762.33C1758.43 1187.88 1755.27 1184.72 1755.27 1180.83V1162.07C1755.27 1158.17 1758.43 1155.01 1762.33 1155.01H1819.46C1823.35 1155.01 1826.51 1158.17 1826.51 1162.07V1180.83C1826.51 1184.72 1823.35 1187.88 1819.46 1187.88Z" fill="#0071BD"/>
<path d="M2429.9 962.434L2235.39 1200.05L2232.65 1203.39C2222.13 1216.25 2205.91 1222.08 2190.55 1220.38L2008.3 1198.79L1917.23 1188.34L1871.83 1183.33L1849.32 1180.98L1838.19 1179.88L1827.89 1179.01L1826.34 1178.88C1801.54 1176.77 1783.15 1154.96 1785.26 1130.15C1787.35 1105.63 1808.75 1087.38 1833.2 1089.02L1845.79 1089.87L1857.54 1090.83L1880.74 1092.86L1926.71 1097.17L2018.31 1106.15L2201.26 1124.77L2156.42 1145.11L2311.56 880.098C2331.73 845.634 2376.02 834.055 2410.48 854.228C2444.94 874.401 2456.52 918.694 2436.35 953.15C2434.49 956.343 2432.15 959.643 2429.9 962.434Z" fill="#FFB9B6"/>
<path d="M1745.99 1044.77C1753.46 1044.47 1759.49 1045.22 1766.23 1047.17C1772.78 1049.1 1779.34 1052.24 1785.18 1056.74C1790.94 1061.2 1796.4 1066.75 1800.33 1073.03C1802.6 1076.13 1804.03 1079.39 1805.82 1082.72C1807.39 1086.03 1808.59 1089.39 1809.93 1092.84L1810.39 1094.02C1815.06 1106.04 1809.11 1119.56 1797.09 1124.24C1785.08 1128.91 1771.55 1122.95 1766.88 1110.94C1765.51 1107.42 1765.07 1103.67 1765.41 1100.17C1765.78 1096.4 1766.09 1092.51 1765.63 1088.95C1765.38 1085.19 1764.26 1081.89 1762.72 1078.42C1761.14 1075 1758.68 1071.8 1755.53 1068.95C1752.56 1066.1 1748.07 1063.59 1744.78 1062.04L1742.69 1061.05C1738.42 1059.03 1736.59 1053.93 1738.61 1049.66C1740.02 1046.68 1742.92 1044.9 1745.99 1044.77Z" fill="#FFB9B6"/>
<path d="M1797.19 1074.12C1807.92 1077.07 1819.79 1080.77 1830.54 1091.01C1838.42 1098.51 1843.64 1130.6 1837.63 1141.4C1823.07 1167.49 1798.18 1178.73 1778.43 1184.18C1762.51 1188.56 1740.47 1189.29 1731.06 1190.81C1726.61 1191.53 1725.7 1185.45 1725.94 1180.94L1725.8 1109.25C1746.74 1106.56 1797.19 1074.12 1797.19 1074.12Z" fill="#FFB9B6"/>
<path d="M1746.33 1133.05C1744.88 1133.34 1744.76 1133.29 1744.16 1133.37L1742.87 1133.46C1742.06 1133.5 1741.32 1133.51 1740.69 1133.5C1739.32 1133.51 1738.11 1133.43 1736.91 1133.35C1734.52 1133.17 1732.27 1132.92 1730.11 1132.58C1725.74 1131.96 1721.65 1131.09 1717.58 1130.18C1709.49 1128.3 1701.75 1126 1694.08 1123.59C1678.82 1118.64 1664.05 1112.95 1649.48 1106.94C1644.56 1104.91 1642.22 1099.28 1644.25 1094.35C1646.14 1089.75 1651.18 1087.4 1655.85 1088.76L1655.95 1088.79C1670.7 1093.15 1685.53 1097.15 1700.3 1100.29C1707.69 1101.8 1715.06 1103.17 1722.29 1104.07C1725.87 1104.49 1729.47 1104.87 1732.84 1104.98C1734.55 1105.08 1736.17 1105.06 1737.68 1105.02C1738.42 1104.98 1739.16 1104.96 1739.73 1104.88C1740.07 1104.85 1740.29 1104.81 1740.46 1104.77C1740.54 1104.75 1740.72 1104.73 1740.63 1104.72C1740.51 1104.73 1740.87 1104.64 1739.9 1104.83C1747.7 1103.05 1755.46 1107.94 1757.23 1115.73C1759 1123.52 1754.12 1131.28 1746.33 1133.05Z" fill="#FFB9B6"/>
<path d="M1755.32 1147.09C1754.05 1147.94 1753.58 1148.14 1753.09 1148.39C1752.54 1148.67 1751.99 1148.94 1751.6 1149.08C1750.77 1149.41 1749.81 1149.83 1749.07 1150.04C1747.51 1150.54 1745.95 1150.98 1744.56 1151.24C1741.64 1151.9 1739 1152.16 1736.36 1152.34C1731.1 1152.73 1726.25 1152.39 1721.49 1151.91C1712.02 1150.84 1703.2 1148.7 1694.63 1146.18C1686.13 1143.54 1677.9 1140.51 1669.89 1137.13C1661.87 1133.78 1654.11 1130.04 1646.39 1126.26C1641.62 1123.92 1639.64 1118.16 1641.97 1113.37C1644.17 1108.89 1649.39 1106.87 1653.96 1108.56L1654.26 1108.68C1661.94 1111.56 1669.61 1114.38 1677.34 1116.77C1685.07 1119.19 1692.83 1121.2 1700.55 1122.81C1708.26 1124.29 1715.95 1125.33 1723.21 1125.43C1726.81 1125.44 1730.38 1125.32 1733.45 1124.75C1734.98 1124.49 1736.51 1124.17 1737.63 1123.75C1738.29 1123.57 1738.72 1123.34 1739.15 1123.16C1739.41 1123.06 1739.39 1122.99 1739.53 1122.93C1739.63 1122.88 1739.54 1122.9 1739.46 1122.93C1739.46 1122.93 1739.41 1122.9 1738.58 1123.46C1745.1 1118.84 1754.14 1120.38 1758.76 1126.9C1763.39 1133.44 1761.85 1142.47 1755.32 1147.09Z" fill="#FFB9B6"/>
<path d="M1749.28 1174.55C1747.2 1175.33 1747.14 1175.21 1746.28 1175.44C1745.48 1175.63 1745.15 1175.64 1744.6 1175.74C1743.52 1175.9 1742.62 1175.97 1741.82 1176.01C1740.04 1176.14 1738.65 1176.06 1737.13 1176.02C1734.27 1175.87 1731.61 1175.55 1729.11 1175.11C1724.03 1174.29 1719.41 1173.04 1714.84 1171.73C1705.81 1169.02 1697.41 1165.61 1689.12 1162.08C1672.68 1154.83 1657.09 1146.54 1641.83 1137.84C1637.2 1135.21 1635.59 1129.32 1638.23 1124.69C1640.7 1120.35 1646.06 1118.66 1650.54 1120.67L1650.65 1120.72C1666.21 1127.76 1681.94 1134.31 1697.76 1139.58C1705.67 1142.11 1713.6 1144.47 1721.36 1146.02C1725.2 1146.73 1729.05 1147.38 1732.56 1147.59C1734.34 1147.74 1736 1147.74 1737.46 1147.68C1738.12 1147.61 1738.88 1147.59 1739.27 1147.48C1739.54 1147.44 1739.72 1147.4 1739.7 1147.36C1739.7 1147.36 1739.89 1147.32 1739.61 1147.36C1739.27 1147.45 1739.75 1147.23 1738.17 1147.82C1745.56 1144.75 1754.03 1148.24 1757.1 1155.62C1760.16 1163 1756.66 1171.48 1749.28 1174.55Z" fill="#FFB9B6"/>
<path d="M1778.64 1182.43C1776.11 1184.28 1775 1184.77 1773.33 1185.68C1771.76 1186.52 1770.28 1187.09 1768.76 1187.79C1765.75 1188.96 1762.75 1190 1759.76 1190.73C1753.77 1192.34 1747.82 1193.04 1741.95 1193.4C1730.19 1193.97 1718.86 1192.41 1708.14 1189.71C1697.3 1187.2 1687.22 1183.15 1677.37 1178.89C1672.6 1176.49 1667.78 1174.18 1663.1 1171.7L1649.42 1163.73C1644.83 1161.05 1643.28 1155.16 1645.95 1150.57C1648.49 1146.21 1653.93 1144.59 1658.4 1146.73L1658.99 1147.01L1672.2 1153.37L1685.65 1158.85C1694.73 1161.92 1703.85 1164.77 1713 1166.1C1722.11 1167.66 1731.24 1168.1 1739.75 1166.96C1743.98 1166.34 1748.12 1165.51 1751.85 1164.13C1753.77 1163.52 1755.51 1162.71 1757.18 1161.91C1757.92 1161.47 1758.81 1161.06 1759.43 1160.63C1759.98 1160.3 1761.06 1159.51 1760.56 1159.82C1766.81 1154.83 1775.92 1155.85 1780.91 1162.1C1785.9 1168.34 1784.89 1177.45 1778.64 1182.43Z" fill="#FFB9B6"/>
<path d="M2354.93 1085.07L2217.83 1029.22L2305.49 863.379L2436.32 774.658C2436.32 774.658 2542.37 884.019 2354.93 1085.07Z" fill="#6C5EFF"/>
<path d="M2240.56 986.221L2217.83 1029.21L2354.93 1085.06C2367.17 1071.94 2378.13 1059.21 2387.98 1046.86C2339.1 1026.07 2289.88 1006.01 2240.56 986.221Z" fill="white"/>
<path d="M2298.47 876.672C2293.97 890.561 2288.42 903.89 2282.54 917.04C2276.71 930.219 2270.28 943.089 2263.67 955.858C2257 968.599 2249.98 981.154 2242.43 993.429C2234.92 1005.72 2226.95 1017.77 2217.83 1029.21C2222.15 1015.23 2227.63 1001.87 2233.55 988.73C2239.44 975.58 2245.86 962.71 2252.63 950.026C2259.46 937.371 2266.48 924.817 2274.08 912.571C2281.64 900.303 2289.53 888.208 2298.47 876.672Z" fill="#4348D9"/>
<path d="M2354.92 1085.07C2368.22 1067.82 2380.7 1050.25 2392.54 1032.32C2404.28 1014.34 2415.21 995.905 2425.06 976.959C2435.2 958.12 2443.16 938.291 2450.44 918.211L2455.39 902.937C2457.03 897.837 2458.03 892.571 2459.48 887.391C2462.85 877.068 2463.61 866.321 2466.19 855.646C2466.63 877.348 2464.73 899.515 2458.9 920.743C2453.21 941.957 2445.48 962.74 2435.28 982.21C2425.19 1001.72 2413.44 1020.35 2400.02 1037.66C2386.6 1054.93 2371.82 1071.23 2354.92 1085.07Z" fill="#4348D9"/>
<path d="M2365.93 715.291L2391.77 734.517C2400.23 740.809 2402.72 752.402 2397.58 761.606L2374.49 803.036L2280.77 873.32L2288.46 797.907L2336.95 767.891L2365.93 715.291Z" fill="white"/>
<path d="M2280.76 718.332L2265.73 729.366C2260.81 732.981 2257.24 738.125 2255.56 744.001L2239.52 800.431L2246.51 851.094L2288.44 797.906L2278.99 757.875L2280.76 718.332Z" fill="white"/>
<path d="M1999.41 1755.44C2000.6 1755.04 2001.82 1754.77 2003.04 1754.45L2006.81 1753.41L2006.82 1753.51C2010.29 1752.8 2013.8 1752.3 2017.38 1752.21C2064.09 1751.02 2102.17 1804.4 2103.01 1872.44C2103.84 1940.16 2067.57 1998.24 2020.89 2003.43L2020.9 2003.58L1722.47 2101.29L1702.7 2093.12V1834.15L1999.41 1755.44Z" fill="#5E93FF"/>
<path d="M1722.47 1842.63L2055.38 1988.79C2055.38 1988.79 2033.3 2002.04 2020.89 2003.42L2020.9 2003.57L1722.47 2101.29L1702.7 2093.12V1834.14L1722.47 1842.63Z" fill="#3666C7"/>
<path d="M1722.48 2101.28V1842.63L1999.43 1769.17C2000.62 1768.77 2001.84 1768.5 2003.05 1768.18L2006.83 1767.14L2006.83 1767.24C2010.31 1766.54 2013.81 1766.03 2017.39 1765.94C2064.1 1764.75 2102.19 1818.12 2103.03 1886.18C2103.86 1953.89 2067.58 2011.97 2020.91 2017.16L2020.92 2017.3L1722.48 2101.28Z" fill="#0A43B8"/>
<path d="M2051.03 1888.27C2049.69 1921.58 2026.72 1950.11 1997.2 1953.46C1964.52 1957.16 1934.41 1929.29 1933.2 1889.13C1931.93 1846.94 1962.82 1814.59 1998.33 1818.43C2030.14 1821.86 2052.42 1853.58 2051.03 1888.27Z" fill="#BFA847"/>
<path d="M2057.87 1895.14C2056.53 1928.45 2033.57 1956.98 2004.04 1960.32C1971.37 1964.02 1941.26 1936.15 1940.05 1895.99C1938.78 1853.8 1969.67 1821.46 2005.18 1825.29C2036.99 1828.72 2059.26 1860.45 2057.87 1895.14Z" fill="#FFE05E"/>
<path d="M2036.58 1894.29C2035.72 1915.54 2021.08 1933.73 2002.25 1935.86C1981.41 1938.22 1962.21 1920.45 1961.44 1894.83C1960.63 1867.93 1980.33 1847.3 2002.98 1849.74C2023.26 1851.94 2037.47 1872.18 2036.58 1894.29Z" fill="#DBC151"/>
<path d="M1778.97 1459.09H487.895C452.046 1459.09 422.984 1488.15 422.984 1524V2399.59C422.984 2435.44 452.046 2464.5 487.895 2464.5H1757.27L1753.33 2467.88L1781.38 2491.52L1824.57 2445.77C1836.48 2434 1843.89 2417.67 1843.89 2399.59V1524.01C1843.88 1488.15 1814.82 1459.09 1778.97 1459.09Z" fill="#2D5DC2"/>
<path d="M1783.59 1523.33L1827.32 1480.8C1815.43 1467.5 1798.2 1459.09 1778.97 1459.09H487.895C452.046 1459.09 422.984 1488.15 422.984 1524V2399.59C422.984 2435.44 452.046 2464.5 487.895 2464.5H1021.39C1134.25 2334.4 1783.59 1523.33 1783.59 1523.33Z" fill="#3D76EB"/>
<path d="M1737.1 2509.08H446.028C410.179 2509.08 381.117 2480.01 381.117 2444.16V1568.58C381.117 1532.73 410.179 1503.67 446.028 1503.67H1737.1C1772.95 1503.67 1802.01 1532.73 1802.01 1568.58V2444.16C1802.01 2480.02 1772.95 2509.08 1737.1 2509.08Z" fill="#0A43B8"/>
<path d="M1674.08 2457.63H602.287C565.14 2457.63 535.023 2427.52 535.023 2390.37V1629.02C535.023 1591.88 565.133 1561.77 602.287 1561.77H1674.08C1711.22 1561.77 1741.34 1591.88 1741.34 1629.02V2390.36C1741.33 2427.51 1711.22 2457.63 1674.08 2457.63Z" fill="#2259C9"/>
<path d="M1629.66 2343.86H630.195C591.319 2343.86 559.797 2312.34 559.797 2273.46V1663.42C559.797 1624.54 591.312 1593.02 630.195 1593.02H1629.66C1668.54 1593.02 1700.06 1624.54 1700.06 1663.42V2273.46C1700.05 2312.34 1668.54 2343.86 1629.66 2343.86Z" fill="#338EB3"/>
<path d="M1615.92 2357.59H616.461C577.585 2357.59 546.062 2326.07 546.062 2287.19V1677.15C546.062 1638.27 577.578 1606.75 616.461 1606.75H1615.93C1654.8 1606.75 1686.33 1638.27 1686.33 1677.15V2287.19C1686.32 2326.07 1654.8 2357.59 1615.92 2357.59Z" fill="#1FC0E5"/>
<path d="M820.453 2041.11H634.001C618.491 2041.11 605.922 2028.55 605.922 2013.04V1900.34C605.922 1884.83 618.491 1872.26 634.001 1872.26H820.453C835.956 1872.26 848.532 1884.83 848.532 1900.34V2013.04C848.532 2028.55 835.956 2041.11 820.453 2041.11Z" fill="#7DA6FF"/>
<path d="M605.922 1926.73H848.532" stroke="#FFFCFC" stroke-width="5.89631" stroke-miterlimit="10"/>
<path d="M605.922 1986.64H848.532" stroke="#FFFCFC" stroke-width="5.89631" stroke-miterlimit="10"/>
<path d="M679.57 1986.64V1926.73" stroke="#FFFCFC" stroke-width="5.89631" stroke-miterlimit="10"/>
<path d="M774.844 1986.64V1926.73" stroke="#FFFCFC" stroke-width="5.89631" stroke-miterlimit="10"/>
<path d="M815.073 2165.26H619.423C611.969 2165.26 605.922 2159.22 605.922 2151.76V2117.48C605.922 2110.03 611.962 2103.98 619.423 2103.98H815.073C822.526 2103.98 828.574 2110.02 828.574 2117.48V2151.76C828.574 2159.21 822.526 2165.26 815.073 2165.26Z" fill="#FEE1A8"/>
<path d="M1081.02 2165.26H885.369C877.915 2165.26 871.867 2159.22 871.867 2151.76V2117.48C871.867 2110.03 877.908 2103.98 885.369 2103.98H1081.02C1088.47 2103.98 1094.52 2110.02 1094.52 2117.48V2151.76C1094.52 2159.21 1088.48 2165.26 1081.02 2165.26Z" fill="#FEE1A8"/>
<path d="M1347.01 2165.26H1151.36C1143.91 2165.26 1137.86 2159.22 1137.86 2151.76V2117.48C1137.86 2110.03 1143.91 2103.98 1151.36 2103.98H1347.01C1354.46 2103.98 1360.51 2110.02 1360.51 2117.48V2151.76C1360.51 2159.21 1354.46 2165.26 1347.01 2165.26Z" fill="#FEE1A8"/>
<path d="M1612.96 2165.26H1417.31C1409.85 2165.26 1403.8 2159.22 1403.8 2151.76V2117.48C1403.8 2110.03 1409.85 2103.98 1417.31 2103.98H1612.96C1620.41 2103.98 1626.46 2110.02 1626.46 2117.48V2151.76C1626.46 2159.21 1620.41 2165.26 1612.96 2165.26Z" fill="#FEE1A8"/>
<path d="M1612.14 2306.52H1001C993.102 2306.52 986.703 2300.12 986.703 2292.22V2259.02C986.703 2251.12 993.102 2244.72 1001 2244.72H1612.14C1620.04 2244.72 1626.44 2251.12 1626.44 2259.02V2292.22C1626.44 2300.11 1620.04 2306.52 1612.14 2306.52Z" fill="#9098BD"/>
<path d="M1471.35 2220.69H1414.22C1410.32 2220.69 1407.16 2217.53 1407.16 2213.64V2194.88C1407.16 2190.98 1410.32 2187.82 1414.22 2187.82H1471.35C1475.25 2187.82 1478.4 2190.98 1478.4 2194.88V2213.64C1478.41 2217.53 1475.25 2220.69 1471.35 2220.69Z" fill="#9098BD"/>
<path d="M1616.69 2220.69H1559.55C1555.66 2220.69 1552.5 2217.53 1552.5 2213.64V2194.88C1552.5 2190.98 1555.66 2187.82 1559.55 2187.82H1616.69C1620.58 2187.82 1623.74 2190.98 1623.74 2194.88V2213.64C1623.74 2217.53 1620.58 2220.69 1616.69 2220.69Z" fill="#9098BD"/>
<path d="M535.023 1919.14V2390.38C535.023 2427.52 565.14 2457.63 602.287 2457.63H1674.08C1711.22 2457.63 1741.34 2427.52 1741.34 2390.38V1919.14H535.023Z" fill="#4377E0"/>
<path d="M535.023 2168.62V2390.38C535.023 2427.53 565.14 2457.63 602.287 2457.63H1674.08C1711.22 2457.63 1741.34 2427.52 1741.34 2390.38V2168.62H535.023Z" fill="#255AC4"/>
<path d="M1334.97 2652.34L1258.64 2690.69L1263 1704.11L1348.99 1689.11V2629.62C1348.99 2639.24 1343.57 2648.03 1334.97 2652.34Z" fill="#2259C9"/>
<path d="M1348.98 1689.11C1348.98 1689.11 1352.1 1670.1 1331.07 1665.51C1316.38 1662.31 460.103 1465.42 460.103 1465.42L381.117 1489.83L1253.82 1725.8L1348.98 1689.11Z" fill="#3D76EB"/>
<path d="M1249.39 1696.32L381.117 1489.84V2442.49C381.117 2473.34 402.345 2500.12 432.368 2507.15L1229.77 2694.09C1256.55 2700.36 1282.18 2680.04 1282.18 2652.54V1737.84C1282.19 1718.07 1268.61 1700.89 1249.39 1696.32Z" fill="#2560D9"/>
<path d="M381.117 1546.29L401.161 1551.05" stroke="#E0FEFD" stroke-width="6.86623" stroke-miterlimit="10"/>
<path d="M441.309 1560.6L1170.71 1734.06C1203.87 1741.95 1227.28 1771.58 1227.28 1805.66V2544C1227.28 2591.5 1182.93 2626.56 1136.71 2615.6L421.25 2445.91" stroke="#E0FEFD" stroke-width="6.86623" stroke-miterlimit="10" stroke-dasharray="41.25 41.25"/>
<path d="M401.161 2441.14L381.117 2436.39" stroke="#E0FEFD" stroke-width="6.86623" stroke-miterlimit="10"/>
<path d="M496.389 1459.09H411.858C394.877 1459.09 381.117 1472.85 381.117 1489.83L496.389 1459.09Z" fill="#4377E0"/>
<path d="M1051.15 2103.03C1056.85 2139.92 1035.67 2173.81 1003.85 2178.73C972.024 2183.65 941.599 2157.73 935.902 2120.84C930.206 2083.95 951.384 2050.05 983.208 2045.14C1015.03 2040.22 1045.45 2066.14 1051.15 2103.03Z" fill="#BAA445"/>
<path d="M1042.87 2105.57C1048.48 2141.89 1027.39 2175.29 995.772 2180.17C964.149 2185.06 933.968 2159.58 928.365 2123.26C922.755 2086.95 943.839 2053.55 975.462 2048.66C1007.08 2043.77 1037.26 2069.25 1042.87 2105.57Z" fill="#FFE05E"/>
<path d="M1021.38 2108.89C1024.88 2131.56 1011.72 2152.42 991.974 2155.47C972.231 2158.52 953.385 2142.6 949.884 2119.93C946.383 2097.26 959.548 2076.4 979.29 2073.35C999.033 2070.3 1017.88 2086.22 1021.38 2108.89Z" fill="#DBC151"/>
</svg>
